<svg xmlns="http://www.w3.org/2000/svg" xmlns:xlink="http://www.w3.org/1999/xlink" viewBox="0 0 161.62 161.62"><defs><style>.cls-1{fill:#fff;}.cls-2{fill:#1f62ae;}.cls-3{fill:#3c9bd5;}.cls-10,.cls-4{fill:#231f20;}.cls-5{fill:url(#linear-gradient);}.cls-6{fill:url(#linear-gradient-2);}.cls-7{fill:url(#linear-gradient-3);}.cls-10,.cls-8{opacity:0.05;}.cls-9{fill:url(#linear-gradient-4);}</style><linearGradient id="linear-gradient" x1="66.14" y1="96.16" x2="66.14" y2="71.92" gradientUnits="userSpaceOnUse"><stop offset="0.39" stop-color="#d0d2d3" stop-opacity="0"/><stop offset="1" stop-color="#d0d2d3"/></linearGradient><linearGradient id="linear-gradient-2" x1="96.44" y1="84.07" x2="96.44" y2="58.87" xlink:href="#linear-gradient"/><linearGradient id="linear-gradient-3" x1="51.56" y1="106.98" x2="109.8" y2="106.98" gradientUnits="userSpaceOnUse"><stop offset="0" stop-color="#e7e6e5"/><stop offset="1" stop-color="#fff"/></linearGradient><linearGradient id="linear-gradient-4" x1="48.88" y1="65.04" x2="112.11" y2="65.04" xlink:href="#linear-gradient-3"/></defs><g id="Layer_2" data-name="Layer 2"><g id="Layer_1-2" data-name="Layer 1"><rect class="cls-1" width="161.62" height="161.62" rx="11.36"/><polygon class="cls-2" points="121.68 140.27 80.81 151.28 39.93 140.27 30.5 38.09 131.12 38.09 121.68 140.27"/><polygon class="cls-3" points="80.81 46.37 80.81 142.5 80.9 142.53 113.98 133.62 121.61 46.37 80.81 46.37"/><polygon class="cls-4" points="57.61 23.08 57.61 16.99 66.48 16.99 66.48 10.34 50.95 10.34 50.95 29.15 66.48 29.15 66.48 23.08 57.61 23.08"/><path class="cls-4" d="M82.45,17h6.2V10.34H73.12V17c2.08,2.08,3.16,3.08,6.17,6.08H73.12v6.07H88.65V23.08Z"/><path class="cls-4" d="M104.46,17h6.2V10.34H95.13V17c2.08,2.08,3.16,3.08,6.17,6.08H95.13v6.07h15.53V23.08Z"/><polygon class="cls-1" points="80.77 71.92 51.52 84.1 52.49 96.16 80.77 84.07 110.86 71.2 112.11 58.87 80.77 71.92"/><polygon class="cls-5" points="51.52 84.1 52.49 96.16 80.77 84.07 80.77 71.92 51.52 84.1"/><polygon class="cls-6" points="112.11 58.87 80.77 71.92 80.77 84.07 110.86 71.2 112.11 58.87"/><polygon class="cls-7" points="51.56 84.1 52.53 96.16 95.93 96.3 94.96 112.38 80.68 116.41 66.95 112.94 66.12 102.96 53.36 102.96 55.03 122.23 80.82 129.85 106.47 122.37 109.8 84.1 51.56 84.1"/><g class="cls-8"><polygon class="cls-4" points="80.77 84.1 51.52 84.1 52.49 96.16 80.77 96.25 80.77 84.1"/><polygon class="cls-4" points="80.77 116.37 80.63 116.41 66.91 112.94 66.08 102.96 53.32 102.96 54.98 122.23 80.77 129.85 80.77 116.37"/></g><polygon class="cls-9" points="48.88 58.87 112.11 58.87 110.86 71.2 50.41 71.2 48.88 58.87"/><polygon class="cls-10" points="80.77 58.87 48.88 58.87 50.41 71.2 80.77 71.2 80.77 58.87"/></g></g></svg>